<svg xmlns="http://www.w3.org/2000/svg" viewBox="0 0 32 32" shape-rendering="crispEdges"><path fill="#110914" d="M0 0h32v32H0z"/><path fill="#d4af37" d="M22 3h2v2h-2z"/><path fill="gold" d="M24 5h2v2h-2z"/><path fill="#2e8b57" d="M20 7h2v2h-2z"/><path fill="#3ecf8e" d="M22 9h2v2h-2z"/><path fill="#4a3018" d="M12 7h8v2h-8zM11 9h10v2H11z"/><path fill="#f0c4a0" d="M12 11h8v4h-8z"/><path fill="#2b1d14" d="M13 13h2v2h-2zM17 13h2v2h-2z"/><path fill="#2a7bd4" d="M10 15h12v6H10z"/><path fill="#5fd4ff" d="M12 17h8v2h-8z"/><path fill="#2a7bd4" d="M8 16h2v4H8zM22 16h2v4h-2zM11 21h4v5h-4zM17 21h4v5h-4z"/><path fill="#f5f5f5" d="M11 26h4v2h-4zM17 26h4v2h-4z"/></svg>